<svg width="146" height="146" viewBox="0 0 146 146" fill="none" xmlns="http://www.w3.org/2000/svg">
<g clip-path="url(#clip0_2_3)">
<rect width="146" height="146" fill="#C1282E"/>
<path d="M31.95 26H111.75V50.45H107.85L103.5 34.7C103.2 33.5 102.85 32.65 102.45 32.15C102.15 31.55 101.5 31.2 100.5 31.1C99.5 30.9 97.8 30.8 95.4 30.8H78.45V115.85C78.45 119.35 78.6 121.4 78.9 122C79.2 122.6 80.15 123 81.75 123.2L90 124.1V128H53.85V124.1L62.1 123.2C63.7 123 64.65 122.6 64.95 122C65.25 121.4 65.4 119.35 65.4 115.85V30.8H48.3C46 30.8 44.3 30.9 43.2 31.1C42.2 31.2 41.5 31.55 41.1 32.15C40.8 32.65 40.5 33.5 40.2 34.7L35.85 50.45H31.95V26Z" fill="white"/>
</g>
<defs>
<clipPath id="clip0_2_3">
<rect width="146" height="146" fill="white"/>
</clipPath>
</defs>
</svg>
